<?xml version='1.0' encoding='utf-8'?>
<svg xmlns="http://www.w3.org/2000/svg">
<defs>
  <g id="cancel">
    <path d="M7.6,121.4c0.8,0.8,1.8,1.2,2.9,1.2s2.1-0.4,2.9-1.2l51.1-51.1l51.1,51.1c0.8,0.8,1.8,1.2,2.9,1.2c1,0,2.1-0.4,2.9-1.2   c1.6-1.6,1.6-4.2,0-5.8L70.3,64.5l51.1-51.1c1.6-1.6,1.6-4.2,0-5.8s-4.2-1.6-5.8,0L64.5,58.7L13.4,7.6C11.8,6,9.2,6,7.6,7.6   s-1.6,4.2,0,5.8l51.1,51.1L7.6,115.6C6,117.2,6,119.8,7.6,121.4z"/>
  </g>
  <g id="download">
    <path d="m61.5,107.1c0.4,0.4 0.9,0.7 1.4,0.9 0,0 0,0 0.1,0 0.5,0.2 1,0.3 1.6,0.3s1.1-0.1 1.6-0.3c0,0 0,0 0.1,0 0.5-0.2 1-0.5 1.4-0.9l56.9-56.9c1.7-1.7 1.7-4.4 0-6.1-1.7-1.7-4.4-1.7-6.1,0l-49.7,49.5v-82.8c0-2.4-1.9-4.3-4.3-4.3-2.4,0-4.3,1.9-4.3,4.3v82.9l-49.5-49.6c-1.7-1.7-4.4-1.7-6.1,0-1.7,1.7-1.7,4.4 0,6.1l56.9,56.9z"/>
    <path d="m7.6,122.6h113.8c2.4,0 4.3-1.9 4.3-4.3 0-2.4-1.9-4.3-4.3-4.3h-113.8c-2.4,0-4.3,1.9-4.3,4.3 0,2.3 1.9,4.3 4.3,4.3z"/>
  </g>
  <g id="menu">
    <path d="m91.4,33.5h-53.8c-2.3,0-4.1,1.8-4.1,4.1 0,2.3 1.8,4.1 4.1,4.1h53.9c2.3,0 4.1-1.8 4.1-4.1-0.1-2.3-1.9-4.1-4.2-4.1z"/>
    <path d="m91.4,87.4h-53.8c-2.3,0-4.1,1.8-4.1,4.1 0,2.3 1.8,4.1 4.1,4.1h53.9c2.3,0 4.1-1.8 4.1-4.1-0.1-2.3-1.9-4.1-4.2-4.1z"/>
    <path d="m91.4,60.4h-53.8c-2.3,0-4.1,1.8-4.1,4.1 0,2.3 1.8,4.1 4.1,4.1h53.9c2.3,0 4.1-1.8 4.1-4.1-0.1-2.3-1.9-4.1-4.2-4.1z"/>
  </g>
</defs>
</svg>